<mxfile host="app.diagrams.net" modified="2022-06-15T19:46:40.508Z" agent="5.0 (Windows NT 10.0; Win64; x64) AppleWebKit/537.36 (KHTML, like Gecko) Chrome/102.0.0.0 Safari/537.36" etag="eynH56ZGErpU9IYzNLG5" version="18.1.2" type="github">
  <diagram id="pfrFTxKC-c57lgW5mY-Y" name="Page-1">
    <mxGraphModel dx="2324" dy="995" grid="1" gridSize="10" guides="1" tooltips="1" connect="1" arrows="1" fold="1" page="1" pageScale="1" pageWidth="827" pageHeight="1169" math="0" shadow="0">
      <root>
        <mxCell id="0" />
        <mxCell id="1" parent="0" />
        <mxCell id="V6tes_X6Qi0lK5qhnxfR-1" value="user" style="swimlane;fontStyle=0;childLayout=stackLayout;horizontal=1;startSize=26;horizontalStack=0;resizeParent=1;resizeParentMax=0;resizeLast=0;collapsible=1;marginBottom=0;align=center;fontSize=14;" vertex="1" parent="1">
          <mxGeometry x="40" y="170" width="210" height="146" as="geometry" />
        </mxCell>
        <mxCell id="V6tes_X6Qi0lK5qhnxfR-2" value="id" style="text;strokeColor=none;fillColor=none;spacingLeft=4;spacingRight=4;overflow=hidden;rotatable=0;points=[[0,0.5],[1,0.5]];portConstraint=eastwest;fontSize=12;" vertex="1" parent="V6tes_X6Qi0lK5qhnxfR-1">
          <mxGeometry y="26" width="210" height="30" as="geometry" />
        </mxCell>
        <mxCell id="V6tes_X6Qi0lK5qhnxfR-3" value="email" style="text;strokeColor=none;fillColor=none;spacingLeft=4;spacingRight=4;overflow=hidden;rotatable=0;points=[[0,0.5],[1,0.5]];portConstraint=eastwest;fontSize=12;" vertex="1" parent="V6tes_X6Qi0lK5qhnxfR-1">
          <mxGeometry y="56" width="210" height="30" as="geometry" />
        </mxCell>
        <mxCell id="V6tes_X6Qi0lK5qhnxfR-4" value="password" style="text;strokeColor=none;fillColor=none;spacingLeft=4;spacingRight=4;overflow=hidden;rotatable=0;points=[[0,0.5],[1,0.5]];portConstraint=eastwest;fontSize=12;" vertex="1" parent="V6tes_X6Qi0lK5qhnxfR-1">
          <mxGeometry y="86" width="210" height="30" as="geometry" />
        </mxCell>
        <mxCell id="V6tes_X6Qi0lK5qhnxfR-13" value="role STRING" style="text;strokeColor=none;fillColor=none;spacingLeft=4;spacingRight=4;overflow=hidden;rotatable=0;points=[[0,0.5],[1,0.5]];portConstraint=eastwest;fontSize=12;" vertex="1" parent="V6tes_X6Qi0lK5qhnxfR-1">
          <mxGeometry y="116" width="210" height="30" as="geometry" />
        </mxCell>
        <mxCell id="V6tes_X6Qi0lK5qhnxfR-15" value="bascet" style="swimlane;fontStyle=0;childLayout=stackLayout;horizontal=1;startSize=26;horizontalStack=0;resizeParent=1;resizeParentMax=0;resizeLast=0;collapsible=1;marginBottom=0;align=center;fontSize=14;" vertex="1" parent="1">
          <mxGeometry x="430" y="140" width="290" height="86" as="geometry" />
        </mxCell>
        <mxCell id="V6tes_X6Qi0lK5qhnxfR-16" value="id" style="text;strokeColor=none;fillColor=none;spacingLeft=4;spacingRight=4;overflow=hidden;rotatable=0;points=[[0,0.5],[1,0.5]];portConstraint=eastwest;fontSize=12;" vertex="1" parent="V6tes_X6Qi0lK5qhnxfR-15">
          <mxGeometry y="26" width="290" height="30" as="geometry" />
        </mxCell>
        <mxCell id="V6tes_X6Qi0lK5qhnxfR-17" value="user_id" style="text;strokeColor=none;fillColor=none;spacingLeft=4;spacingRight=4;overflow=hidden;rotatable=0;points=[[0,0.5],[1,0.5]];portConstraint=eastwest;fontSize=12;" vertex="1" parent="V6tes_X6Qi0lK5qhnxfR-15">
          <mxGeometry y="56" width="290" height="30" as="geometry" />
        </mxCell>
        <mxCell id="V6tes_X6Qi0lK5qhnxfR-20" value="" style="edgeStyle=entityRelationEdgeStyle;fontSize=12;html=1;endArrow=ERmandOne;startArrow=ERmandOne;rounded=0;exitX=1.003;exitY=-0.047;exitDx=0;exitDy=0;exitPerimeter=0;" edge="1" parent="1" source="V6tes_X6Qi0lK5qhnxfR-13">
          <mxGeometry width="100" height="100" relative="1" as="geometry">
            <mxPoint x="330" y="300" as="sourcePoint" />
            <mxPoint x="430" y="200" as="targetPoint" />
          </mxGeometry>
        </mxCell>
        <mxCell id="V6tes_X6Qi0lK5qhnxfR-21" value="device" style="swimlane;fontStyle=0;childLayout=stackLayout;horizontal=1;startSize=26;horizontalStack=0;resizeParent=1;resizeParentMax=0;resizeLast=0;collapsible=1;marginBottom=0;align=center;fontSize=14;" vertex="1" parent="1">
          <mxGeometry x="1166.16" y="160" width="330" height="236" as="geometry" />
        </mxCell>
        <mxCell id="V6tes_X6Qi0lK5qhnxfR-22" value="id" style="text;strokeColor=none;fillColor=none;spacingLeft=4;spacingRight=4;overflow=hidden;rotatable=0;points=[[0,0.5],[1,0.5]];portConstraint=eastwest;fontSize=12;" vertex="1" parent="V6tes_X6Qi0lK5qhnxfR-21">
          <mxGeometry y="26" width="330" height="30" as="geometry" />
        </mxCell>
        <mxCell id="V6tes_X6Qi0lK5qhnxfR-23" value="name" style="text;strokeColor=none;fillColor=none;spacingLeft=4;spacingRight=4;overflow=hidden;rotatable=0;points=[[0,0.5],[1,0.5]];portConstraint=eastwest;fontSize=12;" vertex="1" parent="V6tes_X6Qi0lK5qhnxfR-21">
          <mxGeometry y="56" width="330" height="30" as="geometry" />
        </mxCell>
        <mxCell id="V6tes_X6Qi0lK5qhnxfR-25" value="price" style="text;strokeColor=none;fillColor=none;spacingLeft=4;spacingRight=4;overflow=hidden;rotatable=0;points=[[0,0.5],[1,0.5]];portConstraint=eastwest;fontSize=12;" vertex="1" parent="V6tes_X6Qi0lK5qhnxfR-21">
          <mxGeometry y="86" width="330" height="30" as="geometry" />
        </mxCell>
        <mxCell id="V6tes_X6Qi0lK5qhnxfR-26" value="rating" style="text;strokeColor=none;fillColor=none;spacingLeft=4;spacingRight=4;overflow=hidden;rotatable=0;points=[[0,0.5],[1,0.5]];portConstraint=eastwest;fontSize=12;" vertex="1" parent="V6tes_X6Qi0lK5qhnxfR-21">
          <mxGeometry y="116" width="330" height="30" as="geometry" />
        </mxCell>
        <mxCell id="V6tes_X6Qi0lK5qhnxfR-27" value="img" style="text;strokeColor=none;fillColor=none;spacingLeft=4;spacingRight=4;overflow=hidden;rotatable=0;points=[[0,0.5],[1,0.5]];portConstraint=eastwest;fontSize=12;" vertex="1" parent="V6tes_X6Qi0lK5qhnxfR-21">
          <mxGeometry y="146" width="330" height="30" as="geometry" />
        </mxCell>
        <mxCell id="V6tes_X6Qi0lK5qhnxfR-28" value="typeId" style="text;strokeColor=none;fillColor=none;spacingLeft=4;spacingRight=4;overflow=hidden;rotatable=0;points=[[0,0.5],[1,0.5]];portConstraint=eastwest;fontSize=12;" vertex="1" parent="V6tes_X6Qi0lK5qhnxfR-21">
          <mxGeometry y="176" width="330" height="30" as="geometry" />
        </mxCell>
        <mxCell id="V6tes_X6Qi0lK5qhnxfR-29" value="brandId" style="text;strokeColor=none;fillColor=none;spacingLeft=4;spacingRight=4;overflow=hidden;rotatable=0;points=[[0,0.5],[1,0.5]];portConstraint=eastwest;fontSize=12;" vertex="1" parent="V6tes_X6Qi0lK5qhnxfR-21">
          <mxGeometry y="206" width="330" height="30" as="geometry" />
        </mxCell>
        <mxCell id="V6tes_X6Qi0lK5qhnxfR-30" value="brand" style="swimlane;fontStyle=0;childLayout=stackLayout;horizontal=1;startSize=26;horizontalStack=0;resizeParent=1;resizeParentMax=0;resizeLast=0;collapsible=1;marginBottom=0;align=center;fontSize=14;" vertex="1" parent="1">
          <mxGeometry x="1466.16" y="469" width="160" height="86" as="geometry" />
        </mxCell>
        <mxCell id="V6tes_X6Qi0lK5qhnxfR-31" value="id" style="text;strokeColor=none;fillColor=none;spacingLeft=4;spacingRight=4;overflow=hidden;rotatable=0;points=[[0,0.5],[1,0.5]];portConstraint=eastwest;fontSize=12;" vertex="1" parent="V6tes_X6Qi0lK5qhnxfR-30">
          <mxGeometry y="26" width="160" height="30" as="geometry" />
        </mxCell>
        <mxCell id="V6tes_X6Qi0lK5qhnxfR-32" value="name" style="text;strokeColor=none;fillColor=none;spacingLeft=4;spacingRight=4;overflow=hidden;rotatable=0;points=[[0,0.5],[1,0.5]];portConstraint=eastwest;fontSize=12;" vertex="1" parent="V6tes_X6Qi0lK5qhnxfR-30">
          <mxGeometry y="56" width="160" height="30" as="geometry" />
        </mxCell>
        <mxCell id="V6tes_X6Qi0lK5qhnxfR-34" value="type" style="swimlane;fontStyle=0;childLayout=stackLayout;horizontal=1;startSize=26;horizontalStack=0;resizeParent=1;resizeParentMax=0;resizeLast=0;collapsible=1;marginBottom=0;align=center;fontSize=14;" vertex="1" parent="1">
          <mxGeometry x="1040" y="469" width="160" height="86" as="geometry" />
        </mxCell>
        <mxCell id="V6tes_X6Qi0lK5qhnxfR-35" value="id" style="text;strokeColor=none;fillColor=none;spacingLeft=4;spacingRight=4;overflow=hidden;rotatable=0;points=[[0,0.5],[1,0.5]];portConstraint=eastwest;fontSize=12;" vertex="1" parent="V6tes_X6Qi0lK5qhnxfR-34">
          <mxGeometry y="26" width="160" height="30" as="geometry" />
        </mxCell>
        <mxCell id="V6tes_X6Qi0lK5qhnxfR-36" value="name" style="text;strokeColor=none;fillColor=none;spacingLeft=4;spacingRight=4;overflow=hidden;rotatable=0;points=[[0,0.5],[1,0.5]];portConstraint=eastwest;fontSize=12;" vertex="1" parent="V6tes_X6Qi0lK5qhnxfR-34">
          <mxGeometry y="56" width="160" height="30" as="geometry" />
        </mxCell>
        <mxCell id="V6tes_X6Qi0lK5qhnxfR-38" value="" style="edgeStyle=entityRelationEdgeStyle;fontSize=12;html=1;endArrow=ERoneToMany;rounded=0;exitX=0.25;exitY=0;exitDx=0;exitDy=0;entryX=-0.003;entryY=0.273;entryDx=0;entryDy=0;entryPerimeter=0;" edge="1" parent="1" source="V6tes_X6Qi0lK5qhnxfR-34" target="V6tes_X6Qi0lK5qhnxfR-29">
          <mxGeometry width="100" height="100" relative="1" as="geometry">
            <mxPoint x="1090.0000000000002" y="467.79600000000005" as="sourcePoint" />
            <mxPoint x="1166.16" y="340" as="targetPoint" />
          </mxGeometry>
        </mxCell>
        <mxCell id="V6tes_X6Qi0lK5qhnxfR-42" value="" style="edgeStyle=entityRelationEdgeStyle;fontSize=12;html=1;endArrow=ERmany;startArrow=ERmany;rounded=0;entryX=0.009;entryY=0.853;entryDx=0;entryDy=0;entryPerimeter=0;" edge="1" parent="1" source="V6tes_X6Qi0lK5qhnxfR-34" target="V6tes_X6Qi0lK5qhnxfR-31">
          <mxGeometry width="100" height="100" relative="1" as="geometry">
            <mxPoint x="1200" y="521" as="sourcePoint" />
            <mxPoint x="1456.16" y="380" as="targetPoint" />
          </mxGeometry>
        </mxCell>
        <mxCell id="V6tes_X6Qi0lK5qhnxfR-43" value="device_info" style="swimlane;fontStyle=0;childLayout=stackLayout;horizontal=1;startSize=26;horizontalStack=0;resizeParent=1;resizeParentMax=0;resizeLast=0;collapsible=1;marginBottom=0;align=center;fontSize=14;" vertex="1" parent="1">
          <mxGeometry x="1656.16" y="160" width="160" height="146" as="geometry" />
        </mxCell>
        <mxCell id="V6tes_X6Qi0lK5qhnxfR-44" value="id" style="text;strokeColor=none;fillColor=none;spacingLeft=4;spacingRight=4;overflow=hidden;rotatable=0;points=[[0,0.5],[1,0.5]];portConstraint=eastwest;fontSize=12;" vertex="1" parent="V6tes_X6Qi0lK5qhnxfR-43">
          <mxGeometry y="26" width="160" height="30" as="geometry" />
        </mxCell>
        <mxCell id="V6tes_X6Qi0lK5qhnxfR-45" value="device_id" style="text;strokeColor=none;fillColor=none;spacingLeft=4;spacingRight=4;overflow=hidden;rotatable=0;points=[[0,0.5],[1,0.5]];portConstraint=eastwest;fontSize=12;" vertex="1" parent="V6tes_X6Qi0lK5qhnxfR-43">
          <mxGeometry y="56" width="160" height="30" as="geometry" />
        </mxCell>
        <mxCell id="V6tes_X6Qi0lK5qhnxfR-46" value="title" style="text;strokeColor=none;fillColor=none;spacingLeft=4;spacingRight=4;overflow=hidden;rotatable=0;points=[[0,0.5],[1,0.5]];portConstraint=eastwest;fontSize=12;" vertex="1" parent="V6tes_X6Qi0lK5qhnxfR-43">
          <mxGeometry y="86" width="160" height="30" as="geometry" />
        </mxCell>
        <mxCell id="V6tes_X6Qi0lK5qhnxfR-47" value="description" style="text;strokeColor=none;fillColor=none;spacingLeft=4;spacingRight=4;overflow=hidden;rotatable=0;points=[[0,0.5],[1,0.5]];portConstraint=eastwest;fontSize=12;" vertex="1" parent="V6tes_X6Qi0lK5qhnxfR-43">
          <mxGeometry y="116" width="160" height="30" as="geometry" />
        </mxCell>
        <mxCell id="V6tes_X6Qi0lK5qhnxfR-48" value="" style="edgeStyle=entityRelationEdgeStyle;fontSize=12;html=1;endArrow=ERoneToMany;rounded=0;" edge="1" parent="1" source="V6tes_X6Qi0lK5qhnxfR-25" target="V6tes_X6Qi0lK5qhnxfR-45">
          <mxGeometry width="100" height="100" relative="1" as="geometry">
            <mxPoint x="1356.16" y="480" as="sourcePoint" />
            <mxPoint x="1456.16" y="380" as="targetPoint" />
          </mxGeometry>
        </mxCell>
        <mxCell id="V6tes_X6Qi0lK5qhnxfR-41" value="" style="edgeStyle=entityRelationEdgeStyle;fontSize=12;html=1;endArrow=ERoneToMany;rounded=0;exitX=0.5;exitY=0;exitDx=0;exitDy=0;entryX=1.013;entryY=0.78;entryDx=0;entryDy=0;entryPerimeter=0;" edge="1" parent="1" source="V6tes_X6Qi0lK5qhnxfR-30" target="V6tes_X6Qi0lK5qhnxfR-27">
          <mxGeometry width="100" height="100" relative="1" as="geometry">
            <mxPoint x="1456.16" y="569" as="sourcePoint" />
            <mxPoint x="1556.16" y="469" as="targetPoint" />
          </mxGeometry>
        </mxCell>
        <mxCell id="V6tes_X6Qi0lK5qhnxfR-52" value="bascet_device" style="swimlane;fontStyle=0;childLayout=stackLayout;horizontal=1;startSize=26;horizontalStack=0;resizeParent=1;resizeParentMax=0;resizeLast=0;collapsible=1;marginBottom=0;align=center;fontSize=14;" vertex="1" parent="1">
          <mxGeometry x="850" y="160" width="160" height="116" as="geometry" />
        </mxCell>
        <mxCell id="V6tes_X6Qi0lK5qhnxfR-53" value="id" style="text;strokeColor=none;fillColor=none;spacingLeft=4;spacingRight=4;overflow=hidden;rotatable=0;points=[[0,0.5],[1,0.5]];portConstraint=eastwest;fontSize=12;" vertex="1" parent="V6tes_X6Qi0lK5qhnxfR-52">
          <mxGeometry y="26" width="160" height="30" as="geometry" />
        </mxCell>
        <mxCell id="V6tes_X6Qi0lK5qhnxfR-54" value="device_id" style="text;strokeColor=none;fillColor=none;spacingLeft=4;spacingRight=4;overflow=hidden;rotatable=0;points=[[0,0.5],[1,0.5]];portConstraint=eastwest;fontSize=12;" vertex="1" parent="V6tes_X6Qi0lK5qhnxfR-52">
          <mxGeometry y="56" width="160" height="30" as="geometry" />
        </mxCell>
        <mxCell id="V6tes_X6Qi0lK5qhnxfR-55" value="bascet_id" style="text;strokeColor=none;fillColor=none;spacingLeft=4;spacingRight=4;overflow=hidden;rotatable=0;points=[[0,0.5],[1,0.5]];portConstraint=eastwest;fontSize=12;" vertex="1" parent="V6tes_X6Qi0lK5qhnxfR-52">
          <mxGeometry y="86" width="160" height="30" as="geometry" />
        </mxCell>
        <mxCell id="V6tes_X6Qi0lK5qhnxfR-57" value="" style="edgeStyle=entityRelationEdgeStyle;fontSize=12;html=1;endArrow=ERoneToMany;rounded=0;entryX=-0.011;entryY=0.02;entryDx=0;entryDy=0;entryPerimeter=0;exitX=1;exitY=0.5;exitDx=0;exitDy=0;" edge="1" parent="1" source="V6tes_X6Qi0lK5qhnxfR-16" target="V6tes_X6Qi0lK5qhnxfR-54">
          <mxGeometry width="100" height="100" relative="1" as="geometry">
            <mxPoint x="900" y="300" as="sourcePoint" />
            <mxPoint x="1000" y="200" as="targetPoint" />
          </mxGeometry>
        </mxCell>
        <mxCell id="V6tes_X6Qi0lK5qhnxfR-58" value="" style="edgeStyle=entityRelationEdgeStyle;fontSize=12;html=1;endArrow=ERmandOne;startArrow=ERmandOne;rounded=0;entryX=0;entryY=0.5;entryDx=0;entryDy=0;exitX=1;exitY=0.5;exitDx=0;exitDy=0;" edge="1" parent="1" source="V6tes_X6Qi0lK5qhnxfR-54" target="V6tes_X6Qi0lK5qhnxfR-25">
          <mxGeometry width="100" height="100" relative="1" as="geometry">
            <mxPoint x="900" y="300" as="sourcePoint" />
            <mxPoint x="1000" y="200" as="targetPoint" />
          </mxGeometry>
        </mxCell>
        <mxCell id="V6tes_X6Qi0lK5qhnxfR-59" value="rating" style="swimlane;fontStyle=0;childLayout=stackLayout;horizontal=1;startSize=26;horizontalStack=0;resizeParent=1;resizeParentMax=0;resizeLast=0;collapsible=1;marginBottom=0;align=center;fontSize=14;" vertex="1" parent="1">
          <mxGeometry x="740" y="360" width="160" height="146" as="geometry" />
        </mxCell>
        <mxCell id="V6tes_X6Qi0lK5qhnxfR-60" value="id" style="text;strokeColor=none;fillColor=none;spacingLeft=4;spacingRight=4;overflow=hidden;rotatable=0;points=[[0,0.5],[1,0.5]];portConstraint=eastwest;fontSize=12;" vertex="1" parent="V6tes_X6Qi0lK5qhnxfR-59">
          <mxGeometry y="26" width="160" height="30" as="geometry" />
        </mxCell>
        <mxCell id="V6tes_X6Qi0lK5qhnxfR-61" value="user_id" style="text;strokeColor=none;fillColor=none;spacingLeft=4;spacingRight=4;overflow=hidden;rotatable=0;points=[[0,0.5],[1,0.5]];portConstraint=eastwest;fontSize=12;" vertex="1" parent="V6tes_X6Qi0lK5qhnxfR-59">
          <mxGeometry y="56" width="160" height="30" as="geometry" />
        </mxCell>
        <mxCell id="V6tes_X6Qi0lK5qhnxfR-62" value="device_id" style="text;strokeColor=none;fillColor=none;spacingLeft=4;spacingRight=4;overflow=hidden;rotatable=0;points=[[0,0.5],[1,0.5]];portConstraint=eastwest;fontSize=12;" vertex="1" parent="V6tes_X6Qi0lK5qhnxfR-59">
          <mxGeometry y="86" width="160" height="30" as="geometry" />
        </mxCell>
        <mxCell id="V6tes_X6Qi0lK5qhnxfR-63" value="rate" style="text;strokeColor=none;fillColor=none;spacingLeft=4;spacingRight=4;overflow=hidden;rotatable=0;points=[[0,0.5],[1,0.5]];portConstraint=eastwest;fontSize=12;" vertex="1" parent="V6tes_X6Qi0lK5qhnxfR-59">
          <mxGeometry y="116" width="160" height="30" as="geometry" />
        </mxCell>
        <mxCell id="V6tes_X6Qi0lK5qhnxfR-64" value="" style="edgeStyle=entityRelationEdgeStyle;fontSize=12;html=1;endArrow=ERmandOne;startArrow=ERmandOne;rounded=0;exitX=1;exitY=0.5;exitDx=0;exitDy=0;entryX=0;entryY=0.5;entryDx=0;entryDy=0;" edge="1" parent="1" source="V6tes_X6Qi0lK5qhnxfR-61" target="V6tes_X6Qi0lK5qhnxfR-26">
          <mxGeometry width="100" height="100" relative="1" as="geometry">
            <mxPoint x="900" y="300" as="sourcePoint" />
            <mxPoint x="1000" y="200" as="targetPoint" />
          </mxGeometry>
        </mxCell>
        <mxCell id="V6tes_X6Qi0lK5qhnxfR-66" value="" style="edgeStyle=entityRelationEdgeStyle;fontSize=12;html=1;endArrow=ERoneToMany;rounded=0;entryX=0;entryY=0.5;entryDx=0;entryDy=0;" edge="1" parent="1" source="V6tes_X6Qi0lK5qhnxfR-13" target="V6tes_X6Qi0lK5qhnxfR-61">
          <mxGeometry width="100" height="100" relative="1" as="geometry">
            <mxPoint x="590" y="450" as="sourcePoint" />
            <mxPoint x="690" y="350" as="targetPoint" />
          </mxGeometry>
        </mxCell>
      </root>
    </mxGraphModel>
  </diagram>
</mxfile>
